<mxfile host="app.diagrams.net" agent="Mozilla/5.0 (Windows NT 10.0; Win64; x64) AppleWebKit/537.36 (KHTML, like Gecko) Chrome/131.0.0.0 Safari/537.36 Edg/131.0.0.0" version="24.8.9">
  <diagram name="Page-1" id="UstgFiF1-V0TxrHb4vQl">
    <mxGraphModel dx="786" dy="503" grid="1" gridSize="10" guides="1" tooltips="1" connect="1" arrows="1" fold="1" page="1" pageScale="1" pageWidth="850" pageHeight="1100" background="#99CCFF" math="0" shadow="0">
      <root>
        <mxCell id="0" />
        <mxCell id="1" parent="0" />
        <mxCell id="vZRxwvu0QcczFl4XavCH-10" style="edgeStyle=orthogonalEdgeStyle;rounded=0;orthogonalLoop=1;jettySize=auto;html=1;exitX=0.5;exitY=1;exitDx=0;exitDy=0;entryX=0.5;entryY=0;entryDx=0;entryDy=0;" edge="1" parent="1" source="vZRxwvu0QcczFl4XavCH-1" target="vZRxwvu0QcczFl4XavCH-4">
          <mxGeometry relative="1" as="geometry" />
        </mxCell>
        <mxCell id="vZRxwvu0QcczFl4XavCH-1" value="Lat,Lon,Direction" style="rounded=0;whiteSpace=wrap;html=1;fillColor=#FFB570;" vertex="1" parent="1">
          <mxGeometry x="210" y="70" width="120" height="60" as="geometry" />
        </mxCell>
        <mxCell id="vZRxwvu0QcczFl4XavCH-9" style="edgeStyle=orthogonalEdgeStyle;rounded=0;orthogonalLoop=1;jettySize=auto;html=1;exitX=0.5;exitY=1;exitDx=0;exitDy=0;entryX=0.5;entryY=0;entryDx=0;entryDy=0;" edge="1" parent="1" source="vZRxwvu0QcczFl4XavCH-2" target="vZRxwvu0QcczFl4XavCH-5">
          <mxGeometry relative="1" as="geometry" />
        </mxCell>
        <mxCell id="vZRxwvu0QcczFl4XavCH-2" value="Category" style="rounded=0;whiteSpace=wrap;html=1;fillColor=#FFB570;" vertex="1" parent="1">
          <mxGeometry x="510" y="70" width="120" height="60" as="geometry" />
        </mxCell>
        <mxCell id="vZRxwvu0QcczFl4XavCH-12" style="edgeStyle=orthogonalEdgeStyle;rounded=0;orthogonalLoop=1;jettySize=auto;html=1;exitX=1;exitY=1;exitDx=0;exitDy=0;entryX=0.5;entryY=0;entryDx=0;entryDy=0;" edge="1" parent="1" source="vZRxwvu0QcczFl4XavCH-4" target="vZRxwvu0QcczFl4XavCH-11">
          <mxGeometry relative="1" as="geometry" />
        </mxCell>
        <mxCell id="vZRxwvu0QcczFl4XavCH-13" value="Yes" style="edgeLabel;html=1;align=center;verticalAlign=middle;resizable=0;points=[];" vertex="1" connectable="0" parent="vZRxwvu0QcczFl4XavCH-12">
          <mxGeometry x="-0.1727" y="-1" relative="1" as="geometry">
            <mxPoint as="offset" />
          </mxGeometry>
        </mxCell>
        <mxCell id="vZRxwvu0QcczFl4XavCH-15" style="edgeStyle=orthogonalEdgeStyle;rounded=0;orthogonalLoop=1;jettySize=auto;html=1;exitX=0;exitY=1;exitDx=0;exitDy=0;entryX=0.5;entryY=0;entryDx=0;entryDy=0;" edge="1" parent="1" source="vZRxwvu0QcczFl4XavCH-4" target="vZRxwvu0QcczFl4XavCH-14">
          <mxGeometry relative="1" as="geometry" />
        </mxCell>
        <mxCell id="vZRxwvu0QcczFl4XavCH-16" value="No" style="edgeLabel;html=1;align=center;verticalAlign=middle;resizable=0;points=[];" vertex="1" connectable="0" parent="vZRxwvu0QcczFl4XavCH-15">
          <mxGeometry x="-0.0444" y="-1" relative="1" as="geometry">
            <mxPoint as="offset" />
          </mxGeometry>
        </mxCell>
        <mxCell id="vZRxwvu0QcczFl4XavCH-4" value="Num Obs &amp;gt; 0" style="rhombus;whiteSpace=wrap;html=1;fillColor=#FFB570;" vertex="1" parent="1">
          <mxGeometry x="215" y="180" width="110" height="110" as="geometry" />
        </mxCell>
        <mxCell id="vZRxwvu0QcczFl4XavCH-21" style="edgeStyle=orthogonalEdgeStyle;rounded=0;orthogonalLoop=1;jettySize=auto;html=1;exitX=0.5;exitY=1;exitDx=0;exitDy=0;entryX=0.5;entryY=0;entryDx=0;entryDy=0;" edge="1" parent="1" source="vZRxwvu0QcczFl4XavCH-5" target="vZRxwvu0QcczFl4XavCH-20">
          <mxGeometry relative="1" as="geometry" />
        </mxCell>
        <mxCell id="vZRxwvu0QcczFl4XavCH-5" value="Category MC" style="shape=process;whiteSpace=wrap;html=1;backgroundOutline=1;fillColor=#FFB570;" vertex="1" parent="1">
          <mxGeometry x="510" y="190" width="120" height="60" as="geometry" />
        </mxCell>
        <mxCell id="vZRxwvu0QcczFl4XavCH-7" style="edgeStyle=orthogonalEdgeStyle;rounded=0;orthogonalLoop=1;jettySize=auto;html=1;exitX=1;exitY=0.5;exitDx=0;exitDy=0;entryX=0.5;entryY=0;entryDx=0;entryDy=0;" edge="1" parent="1" source="vZRxwvu0QcczFl4XavCH-6" target="vZRxwvu0QcczFl4XavCH-2">
          <mxGeometry relative="1" as="geometry" />
        </mxCell>
        <mxCell id="vZRxwvu0QcczFl4XavCH-8" style="edgeStyle=orthogonalEdgeStyle;rounded=0;orthogonalLoop=1;jettySize=auto;html=1;exitX=0;exitY=0.5;exitDx=0;exitDy=0;entryX=0.5;entryY=0;entryDx=0;entryDy=0;fillColor=#ffe6cc;strokeColor=#000000;" edge="1" parent="1" source="vZRxwvu0QcczFl4XavCH-6" target="vZRxwvu0QcczFl4XavCH-1">
          <mxGeometry relative="1" as="geometry" />
        </mxCell>
        <mxCell id="vZRxwvu0QcczFl4XavCH-6" value="Lat,Lon,Dir,Cat" style="rounded=0;whiteSpace=wrap;html=1;fillColor=#FFB570;" vertex="1" parent="1">
          <mxGeometry x="365" y="10" width="120" height="60" as="geometry" />
        </mxCell>
        <mxCell id="vZRxwvu0QcczFl4XavCH-18" style="edgeStyle=orthogonalEdgeStyle;rounded=0;orthogonalLoop=1;jettySize=auto;html=1;exitX=0.25;exitY=1;exitDx=0;exitDy=0;entryX=0.75;entryY=0;entryDx=0;entryDy=0;" edge="1" parent="1" source="vZRxwvu0QcczFl4XavCH-11" target="vZRxwvu0QcczFl4XavCH-17">
          <mxGeometry relative="1" as="geometry" />
        </mxCell>
        <mxCell id="vZRxwvu0QcczFl4XavCH-11" value="Position MC" style="shape=process;whiteSpace=wrap;html=1;backgroundOutline=1;fillColor=#FFB570;" vertex="1" parent="1">
          <mxGeometry x="280" y="330" width="120" height="60" as="geometry" />
        </mxCell>
        <mxCell id="vZRxwvu0QcczFl4XavCH-19" style="edgeStyle=orthogonalEdgeStyle;rounded=0;orthogonalLoop=1;jettySize=auto;html=1;exitX=0.75;exitY=1;exitDx=0;exitDy=0;entryX=0.25;entryY=0;entryDx=0;entryDy=0;" edge="1" parent="1" source="vZRxwvu0QcczFl4XavCH-14" target="vZRxwvu0QcczFl4XavCH-17">
          <mxGeometry relative="1" as="geometry" />
        </mxCell>
        <mxCell id="vZRxwvu0QcczFl4XavCH-14" value="Continue same direction, move 1 box" style="shape=process;whiteSpace=wrap;html=1;backgroundOutline=1;fillColor=#FFB570;" vertex="1" parent="1">
          <mxGeometry x="130" y="330" width="120" height="60" as="geometry" />
        </mxCell>
        <mxCell id="vZRxwvu0QcczFl4XavCH-24" style="edgeStyle=orthogonalEdgeStyle;rounded=0;orthogonalLoop=1;jettySize=auto;html=1;exitX=1;exitY=0.5;exitDx=0;exitDy=0;entryX=0;entryY=0.5;entryDx=0;entryDy=0;" edge="1" parent="1" source="vZRxwvu0QcczFl4XavCH-17" target="vZRxwvu0QcczFl4XavCH-22">
          <mxGeometry relative="1" as="geometry" />
        </mxCell>
        <mxCell id="vZRxwvu0QcczFl4XavCH-17" value="New Lat,Lon,Dir" style="rounded=0;whiteSpace=wrap;html=1;fillColor=#FFB570;" vertex="1" parent="1">
          <mxGeometry x="205" y="410" width="120" height="60" as="geometry" />
        </mxCell>
        <mxCell id="vZRxwvu0QcczFl4XavCH-23" style="edgeStyle=orthogonalEdgeStyle;rounded=0;orthogonalLoop=1;jettySize=auto;html=1;exitX=0.5;exitY=1;exitDx=0;exitDy=0;" edge="1" parent="1" source="vZRxwvu0QcczFl4XavCH-20" target="vZRxwvu0QcczFl4XavCH-22">
          <mxGeometry relative="1" as="geometry" />
        </mxCell>
        <mxCell id="vZRxwvu0QcczFl4XavCH-20" value="New Category" style="rounded=0;whiteSpace=wrap;html=1;strokeColor=#000000;fillColor=#FFB570;" vertex="1" parent="1">
          <mxGeometry x="510" y="290" width="120" height="60" as="geometry" />
        </mxCell>
        <mxCell id="vZRxwvu0QcczFl4XavCH-25" style="edgeStyle=orthogonalEdgeStyle;rounded=0;orthogonalLoop=1;jettySize=auto;html=1;exitX=1;exitY=0.5;exitDx=0;exitDy=0;entryX=1;entryY=0.25;entryDx=0;entryDy=0;" edge="1" parent="1" source="vZRxwvu0QcczFl4XavCH-22" target="vZRxwvu0QcczFl4XavCH-6">
          <mxGeometry relative="1" as="geometry" />
        </mxCell>
        <mxCell id="vZRxwvu0QcczFl4XavCH-22" value="New Lat,Lon,Dir,Cat" style="rounded=0;whiteSpace=wrap;html=1;fillColor=#FFB570;" vertex="1" parent="1">
          <mxGeometry x="510" y="410" width="120" height="60" as="geometry" />
        </mxCell>
      </root>
    </mxGraphModel>
  </diagram>
</mxfile>
